PathFileType	4	(X/Y/Z)	Patient4_TMGait_0pt7_02_left_12.trc.trc
DataRate	CameraRate	NumFrames	NumMarkers	Units	OrigDataRate	OrigDataStartFrame	OrigNumFrames
86.419753086420	86.419753086420	5	33	mm	86.419753086420	53	       141
Frame#	Time	Sacral			L.Shoulder			Chest			R.Shoulder			Neck			R.ASIS			L.ASIS			R.Thigh.Superior			R.Thigh.Lateral			R.Thigh.Inferior			R.Patella			L.Thigh.Superior			L.Thigh.Lateral			L.Thigh.Inferior			L.Patella			L.Shank.Superior			L.Shank.Lateral			L.Shank.Inferior			R.Shank.Superior			R.Shank.Lateral			R.Shank.Inferior			R.Heel			R.Midfoot.Superior			R.Midfoot.Lateral			R.Toe			L.Heel			L.Midfoot.Lateral			L.Midfoot.Superior			L.Toe			L.Elbow			L.Wrist			R.Elbow			R.Wrist			
		X1	Y1	Z1	X2	Y2	Z2	X3	Y3	Z3	X4	Y4	Z4	X5	Y5	Z5	X6	Y6	Z6	X7	Y7	Z7	X8	Y8	Z8	X9	Y9	Z9	X10	Y10	Z10	X11	Y11	Z11	X12	Y12	Z12	X13	Y13	Z13	X14	Y14	Z14	X15	Y15	Z15	X16	Y16	Z16	X17	Y17	Z17	X18	Y18	Z18	X19	Y19	Z19	X20	Y20	Z20	X21	Y21	Z21	X22	Y22	Z22	X23	Y23	Z23	X24	Y24	Z24	X25	Y25	Z25	X26	Y26	Z26	X27	Y27	Z27	X28	Y28	Z28	X29	Y29	Z29	X30	Y30	Z30	X31	Y31	Z31	X32	Y32	Z32	X33	Y33	Z33	

53	13.991714285714	741.740555489517	1012.058244647376	434.996214777281	933.668213794218	1425.618533290335	235.145309010886	1036.935418960875	1357.989945861038	398.605918107349	959.342512730723	1448.883496781100	567.908655673662	942.464862300762	1494.417855323885	384.857633769311	967.843241463063	945.531300752724	553.103449265483	956.271932643023	965.343063948541	278.866187976793	1059.398275044178	790.972195059080	524.525744130252	1031.406834793932	668.067954724213	601.762199725006	1124.800384495136	635.563717223198	523.594214122065	1152.755597715426	522.653562959373	547.032796122281	998.600366683386	752.985452803841	304.240872274385	905.044647013947	640.099714837935	248.347303239303	988.611397718274	559.953093706011	309.401959954520	986.729829535972	491.683579139848	320.110714823093	961.582447115687	420.594791664607	313.111841662773	872.144959991544	304.042915546958	264.756728995833	927.632772466471	195.510052249171	338.356971181958	1080.388927746188	443.301738373407	553.893541510048	960.561015937963	397.988697476813	613.678157262954	952.483687189197	288.049477666925	564.999282229458	755.167537092932	212.468241570998	535.975707205024	928.571716912065	169.482103542108	579.118232184089	818.460090116862	158.894983918387	610.440003878171	1000.820754581837	62.224570326432	605.817656878452	803.334090042700	38.407669225798	385.938826750905	877.797731774182	34.461537242164	305.003496435912	959.976324971685	96.742187681832	331.516058412805	1089.177546390602	46.308748679780	305.260280478522	936.097567838499	1074.337526164543	120.364804938246	1093.215791719572	864.125500471339	122.028140853267	919.179343141618	1114.437786871501	706.617170772226	1119.474407054510	979.625694033457	618.050208488161	
54	14.003285714286	740.446131778278	1012.023197676907	434.090662773468	934.061821783996	1425.581719534756	234.407943389141	1036.210664089739	1357.880328066069	398.516949041643	957.691418124533	1448.851367631155	567.292650498052	941.954086331751	1494.414369566002	384.034950125320	966.558661658730	945.912489215350	552.742424279232	955.415034767848	965.665180689617	278.367522293581	1059.554235173750	793.690413479980	524.294697903423	1033.502485038645	670.614009516452	602.203812503279	1127.185002349097	639.163804275041	524.013851132824	1157.255143777649	527.662537586273	547.811467009468	995.647323188168	752.246986637394	303.630445233971	900.719715899953	640.170245605720	247.827096136522	983.357722505813	559.151979799129	308.724506891275	980.661622595891	491.002557163746	319.571602189128	955.278997920313	420.183103276488	312.652532745482	865.118917700864	304.104814423050	264.539872876457	920.156341240073	195.345721314260	338.133752992114	1088.109209863390	446.206504342231	555.178342218640	970.843588673027	395.603437014337	615.663413314954	967.682739601489	285.151836416055	567.388140110432	773.959998667761	200.661665685994	539.554224266655	949.388198039505	165.268006219626	582.046740953403	839.846644654539	149.995469952576	613.795128387628	1026.300374751872	61.285039545152	608.714602392867	795.182084522847	38.439075723688	385.902579984822	869.671492373769	34.446492372345	304.993242750919	951.888696406181	96.728118388986	331.425902870312	1081.063326111206	46.205848357384	305.224706110584	943.801552881735	1075.501523054009	117.860518837794	1110.319215013871	872.649269843503	120.638188481724	912.147307194861	1115.006992676022	706.765709923828	1104.637827202334	962.281078663239	627.502385367924	
55	14.014857142857	739.290659230407	1011.929665000825	433.360386745291	934.412917348008	1425.510596444985	233.808411749031	1035.565102551324	1357.721727507388	398.470014120006	956.243476473272	1448.736271058986	566.783186408338	941.484025409390	1494.350181876772	383.345134102913	965.401252959092	946.153114714857	552.450143059927	954.587971831731	965.862572669374	277.944192666648	1059.434639800677	795.801000986519	524.200654456189	1034.888675046524	672.604133421656	602.723093790685	1128.744140566455	641.962186343870	524.530316279812	1160.693101172159	532.103124460638	548.660812199205	992.717141768884	751.462437481215	303.186723914530	896.409772217697	640.219905678188	247.396294254221	978.028181445704	558.339600869615	308.192755946007	974.504022718576	490.329361340446	319.170802769341	948.918617376847	419.766850327191	312.305021570459	858.086245820461	304.152755608305	264.376927352179	912.652719611909	195.172545734889	337.983889813048	1095.054623868557	448.670753878765	556.586226844711	980.849809324135	392.551811626282	617.861329093885	983.023193491675	281.810431055443	570.026772737994	793.687766214743	187.991043389698	543.378227712807	970.835264412569	160.708142468419	585.284381313635	862.118379137254	140.589696479476	617.458818521319	1052.522511628539	60.440256139780	612.113900737968	787.035014658350	38.459887622048	385.874146392615	861.535190076313	34.433769148416	304.993596054610	943.786931518578	96.719896859587	331.356141090020	1072.934687414594	46.124358932674	305.192647038452	950.985172655455	1076.786096009982	115.576012870543	1126.580118289257	881.744689934295	119.584229543455	905.616425791136	1115.541855873981	707.149789559047	1088.641133688976	946.062976235846	637.350623407806	
56	14.026428571429	738.293682427645	1011.792021615441	432.791278326047	934.710657969967	1425.410062452222	233.352482234281	1035.000238622839	1357.521551672477	398.468191303020	955.003615378557	1448.547421927975	566.388610273490	941.062287969831	1494.225249042733	382.798400591868	964.381036369596	946.248920433237	552.229283502785	953.816269252402	965.934491124871	277.603740706884	1059.033232418435	797.255264184888	524.227498561843	1035.535403884752	673.989787752958	603.311669193346	1129.449761773490	643.893866293257	525.129901830937	1163.046964505303	535.902373406046	549.555628872827	989.830829136219	750.628335592142	302.926725956376	892.116687888068	640.254704373557	247.058720691288	972.611970278167	557.516647257577	307.814050881240	968.249662492075	489.670314755349	318.912209813749	942.487786699620	419.353791920718	312.072924196493	851.040235792166	304.187843032481	264.265651019598	905.116287797314	194.993100689009	337.910501929323	1101.180716164077	450.685541946801	558.088516487034	990.575824219513	388.912996780455	620.247410954719	998.444817452079	278.173023221545	572.858149701750	814.362882511794	174.746611192913	547.364397277452	992.826762369644	156.020050577949	588.762951943119	885.222722415750	130.938536879492	621.345437125672	1079.303874673893	59.908620723910	615.902850679008	778.892220474265	38.471818565281	385.852091892354	853.387758390980	34.423747871936	305.004307209935	935.671176097277	96.713955084236	331.309710257114	1064.789849957503	46.061122548467	305.165827751392	957.623346353233	1078.157516141059	113.513907934262	1141.925347334760	891.354022597906	118.855818075261	899.549149157846	1116.069644036914	707.781298961604	1071.583219911750	931.093308929468	647.534225466171	
57	14.038000000000	737.473873614776	1011.623112713362	432.366875640833	934.948953607361	1425.282888894128	233.044952673325	1034.518062601039	1357.285139065273	398.516099893092	953.975445557951	1448.291715474099	566.117129207202	940.697578583509	1494.039128877910	382.403625350191	963.507498350725	946.197405928258	552.081531218781	953.135734740992	965.890199886124	277.350888924218	1058.345217636740	798.016110456179	524.368605155052	1035.420014227002	674.738417840999	603.972198203960	1129.287621712655	644.916055329103	525.809390594921	1164.311899115907	539.004098976161	550.479264337446	987.005239220375	749.739364642445	302.856484283912	887.838125027884	640.280991145385	246.815586407848	967.099255462454	556.684453563305	307.587506038279	961.892004722628	489.029915070582	318.789235387182	935.971353671881	418.953411268888	311.951648619814	843.968924405564	304.213881341600	264.201443942234	897.541066465395	194.812154920033	337.910595689732	1106.453947476834	452.252639986963	559.658519491275	1000.009996451649	384.775150906908	622.790283037339	1013.867995296710	274.389715373940	575.812441371940	835.951303405957	161.219115911022	551.415436216902	1015.248074230171	151.423271779251	592.392280661920	909.073881471569	121.292594299072	625.348749296181	1106.444129979282	59.901933097812	619.931022806266	770.751511351841	38.477860491372	385.835281682606	845.228672956313	34.416782029336	305.024753190388	927.542610952310	96.707011574388	331.287302364651	1056.627813067056	46.012312659192	305.145542517193	963.698880787072	1079.580427150455	111.676417531796	1156.290348128909	901.411672661273	118.440921998885	893.905863521226	1116.616659725001	708.654435454060	1053.598873428972	917.485174074396	657.967230000170	
